<svg id="Layer_1" data-name="Layer 1" xmlns="http://www.w3.org/2000/svg" viewBox="0 0 256 256"><defs><style>.cls-1{fill:#effafe;}.cls-2{fill:#40bdff;}.cls-3{fill:#fd0;}.cls-4{fill:#efc803;}.cls-5{fill:#e4ebed;}.cls-6{fill:#2197f7;}.cls-7{fill:#263238;}</style></defs><title>cv job seeker employee unemployee work</title><path class="cls-1" d="M89.54,58.68h0a4.42,4.42,0,1,0-.7,0Z"/><path class="cls-2" d="M73.88,71.5H76V70.28c0-4.2,2.1-8.12,6.78-10.56a8.54,8.54,0,0,1-2-5.42,8.41,8.41,0,0,1,16.83,0,8.57,8.57,0,0,1-2,5.42c4.69,2.45,6.78,6.39,6.78,10.56V71.5h2.1V40.88H73.88Z"/><path class="cls-3" d="M182.12,221V179.51l-.59.1a14.93,14.93,0,0,0-12.37,14.74V206a2,2,0,0,1-2,2h-31v13a23,23,0,0,0,46,0Z"/><path class="cls-4" d="M181.53,179.61a15,15,0,0,0-4.41,1.52V221a23,23,0,0,1-20.5,22.86A23,23,0,0,0,182.12,221V179.51Z"/><path class="cls-1" d="M90.8,62.68c-3.1,0-3.07,0-3.22,0a7.61,7.61,0,0,0-7.6,7.6V71.5H98.41V70.28A7.61,7.61,0,0,0,90.8,62.68Z"/><path class="cls-5" d="M89.19,49.89a4.36,4.36,0,0,0-2,.5,4.37,4.37,0,0,1,0,7.81,4.46,4.46,0,0,0,1.66.48h.7a4.4,4.4,0,0,0-.37-8.79Z"/><path class="cls-6" d="M100.51,40.88V63.95a11.21,11.21,0,0,1,1.9,6.34V71.5h2.1V40.88Z"/><path class="cls-5" d="M90.8,62.68c-3.1,0-3.07,0-3.22,0l-.39,0a7.61,7.61,0,0,1,7.21,7.58V71.5h4V70.28A7.61,7.61,0,0,0,90.8,62.68Z"/><polygon class="cls-1" points="186.47 14.83 186.47 24.61 196.25 24.61 186.47 14.83"/><path class="cls-1" d="M68.22,204h96.94v-9.65a19,19,0,0,1,19-19,2,2,0,0,1,2,2V204h6.66a6.31,6.31,0,0,0,6.3-6.31V28.61H184.47a2,2,0,0,1-2-2V12H68.22a6.31,6.31,0,0,0-6.3,6.31V197.69A6.31,6.31,0,0,0,68.22,204ZM108.51,73.5a2,2,0,0,1-2,2H71.88a2,2,0,0,1-2-2V38.88a2,2,0,0,1,2-2h34.63a2,2,0,0,1,2,2Zm75.61-15.31h-64a2,2,0,0,1,0-4h64a2,2,0,0,1,0,4Zm-64,13.31h64a2,2,0,0,1,0,4h-64a2,2,0,0,1,0-4Zm64-30.63h-60.3a2,2,0,0,1,0-4h60.3a2,2,0,0,1,0,4ZM71.88,88.82H184.12a2,2,0,0,1,0,4H71.88a2,2,0,0,1,0-4Zm0,17.31H184.12a2,2,0,0,1,0,4H71.88a2,2,0,1,1,0-4Zm0,17.31H184.12a2,2,0,0,1,0,4H71.88a2,2,0,0,1,0-4Zm0,17.31H184.12a2,2,0,0,1,0,4H71.88a2,2,0,0,1,0-4Zm0,17.31H184.12a2,2,0,0,1,0,4H71.88a2,2,0,1,1,0-4Zm0,17.31h69a2,2,0,1,1,0,4h-69a2,2,0,0,1,0-4Z"/><path class="cls-5" d="M194.08,28.61V197.69a6.31,6.31,0,0,1-6.3,6.31h5a6.31,6.31,0,0,0,6.3-6.31V28.61Z"/><path class="cls-7" d="M63.22,208.5h68.4V221a27.5,27.5,0,0,0,55,0V208.5h6.16a10.82,10.82,0,0,0,10.8-10.81V26.61a2.65,2.65,0,0,0-.73-1.77L186.24,8.23l-.05,0a2.56,2.56,0,0,0-1.72-.7H63.22a10.82,10.82,0,0,0-10.8,10.81V197.69A10.82,10.82,0,0,0,63.22,208.5Zm118.4-2.5v15a22.5,22.5,0,0,1-45,0V208.5h30.54a2.5,2.5,0,0,0,2.5-2.5V194.35a14.48,14.48,0,0,1,12-14.24ZM187,16,195,24.11H187ZM57.42,18.31a5.81,5.81,0,0,1,5.8-5.81H182V26.61a2.5,2.5,0,0,0,2.5,2.5h14.11V197.69a5.81,5.81,0,0,1-5.8,5.81h-6.16V177.39a2.5,2.5,0,0,0-2.5-2.5,19.48,19.48,0,0,0-19.46,19.46v9.15H63.22a5.81,5.81,0,0,1-5.8-5.81Z"/><path class="cls-7" d="M123.82,41.38h60.3a2.5,2.5,0,0,0,0-5h-60.3a2.5,2.5,0,0,0,0,5Z"/><path class="cls-7" d="M120.16,58.69h64a2.5,2.5,0,0,0,0-5h-64a2.5,2.5,0,0,0,0,5Z"/><path class="cls-7" d="M120.16,76h64a2.5,2.5,0,0,0,0-5h-64a2.5,2.5,0,0,0,0,5Z"/><path class="cls-7" d="M71.88,93.32H184.12a2.5,2.5,0,0,0,0-5H71.88a2.5,2.5,0,0,0,0,5Z"/><path class="cls-7" d="M71.88,110.63H184.12a2.5,2.5,0,0,0,0-5H71.88a2.5,2.5,0,1,0,0,5Z"/><path class="cls-7" d="M71.88,127.95H184.12a2.5,2.5,0,0,0,0-5H71.88a2.5,2.5,0,0,0,0,5Z"/><path class="cls-7" d="M71.88,145.26H184.12a2.5,2.5,0,0,0,0-5H71.88a2.5,2.5,0,0,0,0,5Z"/><path class="cls-7" d="M71.88,162.57H184.12a2.5,2.5,0,0,0,0-5H71.88a2.5,2.5,0,1,0,0,5Z"/><path class="cls-7" d="M71.88,179.89h69a2.5,2.5,0,1,0,0-5h-69a2.5,2.5,0,0,0,0,5Z"/><path class="cls-7" d="M71.88,76h34.63a2.5,2.5,0,0,0,2.5-2.5V38.88a2.5,2.5,0,0,0-2.5-2.5H71.88a2.5,2.5,0,0,0-2.5,2.5V73.5A2.5,2.5,0,0,0,71.88,76Zm26-5H80.48v-.72a7.11,7.11,0,0,1,7.1-7.1H90.8a7.11,7.11,0,0,1,7.1,7.1ZM85.28,54.3a3.91,3.91,0,1,1,4.24,3.88h-.66A3.91,3.91,0,0,1,85.28,54.3ZM74.38,41.38H104V71h-1.1v-.72a12.11,12.11,0,0,0-6.53-10.73,8.91,8.91,0,1,0-14.37,0,12.11,12.11,0,0,0-6.53,10.73V71h-1.1Z"/><path class="cls-3" d="M43.83,22h-4V18a1,1,0,0,0-2,0v4h-4a1,1,0,0,0,0,2h4v4a1,1,0,1,0,2,0V24h4a1,1,0,0,0,0-2Z"/><path class="cls-2" d="M236,128.95a6,6,0,1,1,6-6A6,6,0,0,1,236,128.95Zm0-10a4,4,0,1,0,4,4A4,4,0,0,0,236,118.95Z"/><path class="cls-3" d="M25.3,234a6,6,0,1,1,6-6A6,6,0,0,1,25.3,234Zm0-10a4,4,0,1,0,4,4A4,4,0,0,0,25.3,224Z"/><path class="cls-2" d="M37.83,127H35.24l1.83-1.83a1,1,0,0,0-1.41-1.41l-1.83,1.83V123a1,1,0,0,0-2,0v2.59L30,123.76a1,1,0,0,0-1.41,1.41L30.41,127H27.83a1,1,0,0,0,0,2h2.59l-1.83,1.83A1,1,0,0,0,30,132.24l1.83-1.83V133a1,1,0,0,0,2,0v-2.59l1.83,1.83a1,1,0,0,0,1.41-1.41L35.24,129h2.59a1,1,0,1,0,0-2Z"/><path class="cls-2" d="M214.58,225H212l1.83-1.83a1,1,0,0,0-1.41-1.41l-1.83,1.83V221a1,1,0,0,0-2,0v2.59l-1.83-1.83a1,1,0,0,0-1.41,1.41l1.83,1.83h-2.59a1,1,0,0,0,0,2h2.59l-1.83,1.83a1,1,0,0,0,1.41,1.41l1.83-1.83V231a1,1,0,0,0,2,0v-2.59l1.83,1.83a1,1,0,0,0,1.41-1.41L212,227h2.59a1,1,0,1,0,0-2Z"/></svg>