<?xml version="1.0" encoding="UTF-8" standalone="no"?>
<!DOCTYPE svg PUBLIC "-//W3C//DTD SVG 1.1//EN" "http://www.w3.org/Graphics/SVG/1.1/DTD/svg11.dtd">
<svg xmlns="http://www.w3.org/2000/svg" version="1.1" viewBox="0 0 20 20" width="20.0pt" height="20.0pt">
<path d="M 0.00 0.00 L 1.87 0.00 C 1.58 1.13 0.95 1.42 0.00 0.86 L 0.00 0.00 Z" fill="#ffffff" />
<path d="M 1.87 0.00 L 4.79 0.00 C 5.64 0.50 6.47 1.03 7.28 1.57 L 8.71 2.91 C 12.52 2.99 16.21 2.93 20.00 3.30 L 20.00 16.56 C 19.00 16.76 18.00 16.96 16.99 17.16 C 16.81 18.11 16.61 19.06 16.41 20.00 L 5.04 20.00 C 4.97 17.02 4.91 14.02 4.93 11.04 L 6.13 10.22 C 6.07 11.84 5.97 13.45 5.84 15.06 L 5.34 16.00 C 6.56 16.00 7.79 16.01 9.01 16.01 L 9.00 17.97 C 8.00 17.99 7.00 18.00 6.00 18.02 L 6.00 19.00 C 9.33 19.00 12.67 19.00 16.00 19.00 L 16.00 18.03 C 15.00 18.01 14.00 17.99 13.00 17.97 L 13.00 16.01 C 15.00 16.00 17.00 16.00 19.00 15.99 C 19.00 12.00 19.00 8.00 19.00 4.00 C 15.18 4.00 11.37 4.00 7.55 4.00 L 7.63 5.20 C 7.76 6.98 7.88 8.75 7.99 10.53 L 7.12 9.15 C 6.97 6.76 6.96 4.39 6.94 2.00 L 5.55 2.00 C 5.63 3.93 5.69 5.87 5.77 7.81 C 4.64 7.76 3.52 7.69 2.40 7.60 C 2.33 5.72 2.36 3.84 2.45 1.96 L 0.99 2.03 C 1.00 4.40 1.02 6.77 1.06 9.14 C 1.69 9.55 2.31 9.95 2.93 10.37 L 3.21 12.21 C 3.08 14.81 2.92 17.41 2.54 20.00 L 2.25 20.00 C 1.82 16.06 2.67 12.68 0.00 9.38 L 0.00 0.86 C 0.95 1.42 1.58 1.13 1.87 0.00 Z" fill="#7f7f7f" />
<path d="M 4.79 0.00 L 20.00 0.00 L 20.00 3.30 C 16.21 2.93 12.52 2.99 8.71 2.91 L 7.28 1.57 C 6.47 1.03 5.64 0.50 4.79 0.00 Z" fill="#ffffff" />
<path d="M 3.16 1.22 L 3.98 0.74 C 6.16 1.31 3.37 3.49 3.16 1.22 Z" fill="#ffffff" />
<path d="M 0.99 2.03 L 2.45 1.96 C 2.36 3.84 2.33 5.72 2.40 7.60 C 3.52 7.69 4.64 7.76 5.77 7.81 C 5.69 5.87 5.63 3.93 5.55 2.00 L 6.94 2.00 C 6.96 4.39 6.97 6.76 7.12 9.15 C 5.10 9.16 3.08 9.16 1.06 9.14 C 1.02 6.77 1.00 4.40 0.99 2.03 Z" fill="#ffffff" />
<path d="M 3.05 7.15 C 2.74 5.90 2.70 4.69 2.96 3.51 C 5.99 0.87 6.29 8.17 3.05 7.15 Z" fill="#ffffff" />
<path d="M 7.55 4.00 C 11.37 4.00 15.18 4.00 19.00 4.00 C 19.00 8.00 19.00 12.00 19.00 15.99 C 17.00 16.00 15.00 16.00 13.00 16.01 L 13.00 17.97 C 14.00 17.99 15.00 18.01 16.00 18.03 L 16.00 19.00 C 12.67 19.00 9.33 19.00 6.00 19.00 L 6.00 18.02 C 7.00 18.00 8.00 17.99 9.00 17.97 L 9.01 16.01 C 7.79 16.01 6.56 16.00 5.34 16.00 L 5.84 15.06 C 9.90 14.89 13.98 15.00 18.04 15.01 C 18.01 12.57 17.97 10.12 17.91 7.68 C 17.89 6.88 17.88 6.08 17.85 5.27 C 14.45 5.25 11.04 5.23 7.63 5.20 L 7.55 4.00 Z" fill="#ffffff" />
<path d="M 7.63 5.20 C 11.04 5.23 14.45 5.25 17.85 5.27 C 17.88 6.08 17.89 6.88 17.91 7.68 C 14.60 8.72 11.41 9.85 7.99 10.53 C 7.88 8.75 7.76 6.98 7.63 5.20 Z" fill="#dfdfdf" />
<path d="M 17.91 7.68 C 17.97 10.12 18.01 12.57 18.04 15.01 C 13.98 15.00 9.90 14.89 5.84 15.06 C 5.97 13.45 6.07 11.84 6.13 10.22 L 4.93 11.04 L 3.21 12.21 L 2.93 10.37 C 2.31 9.95 1.69 9.55 1.06 9.14 C 3.08 9.16 5.10 9.16 7.12 9.15 L 7.99 10.53 C 11.41 9.85 14.60 8.72 17.91 7.68 Z" fill="#b2b2b2" />
<path d="M 0.00 9.38 C 2.67 12.68 1.82 16.06 2.25 20.00 L 0.00 20.00 L 0.00 9.38 Z" fill="#ffffff" />
<path d="M 3.21 12.21 L 4.93 11.04 C 4.91 14.02 4.97 17.02 5.04 20.00 L 2.54 20.00 C 2.92 17.41 3.08 14.81 3.21 12.21 Z" fill="#ffffff" />
<path d="M 16.99 17.16 C 18.00 16.96 19.00 16.76 20.00 16.56 L 20.00 20.00 L 16.41 20.00 C 16.61 19.06 16.81 18.11 16.99 17.16 Z" fill="#ffffff" />
</svg>