<?xml version="1.0" encoding="UTF-8" standalone="no"?>
<!DOCTYPE svg PUBLIC "-//W3C//DTD SVG 1.1//EN" "http://www.w3.org/Graphics/SVG/1.1/DTD/svg11.dtd">
<svg xmlns="http://www.w3.org/2000/svg" version="1.1" viewBox="0 0 20 20" fill="none" width="20.0pt" height="20.0pt">
<path d="M 2.31 0.00 L 5.23 0.00 L 6.96 1.11 C 7.57 1.45 8.02 2.06 8.31 2.94 C 12.16 3.27 16.23 2.53 20.00 3.38 L 20.00 16.60 C 19.05 16.80 18.10 16.99 17.14 17.16 C 17.03 18.16 16.77 19.11 16.37 20.00 L 4.22 20.00 C 5.60 17.54 4.82 14.18 4.91 11.43 L 6.00 10.85 C 6.06 12.24 6.03 13.61 5.89 14.98 L 5.70 15.99 C 6.80 15.99 7.90 15.99 9.00 16.00 L 9.00 17.99 C 8.01 18.00 7.02 18.01 6.03 18.02 L 6.03 18.99 C 9.35 19.00 12.67 19.00 15.99 18.99 L 15.97 18.03 C 14.98 18.01 13.99 18.00 13.00 17.99 L 13.00 16.01 C 14.99 15.96 16.98 16.04 18.97 15.97 C 19.01 12.00 19.02 8.00 18.97 4.03 C 15.24 3.97 11.51 4.00 7.77 4.01 L 7.85 5.16 C 7.96 6.85 7.98 8.54 8.02 10.24 L 6.88 9.23 C 7.22 6.76 7.19 4.46 6.84 2.00 L 5.61 2.00 C 5.68 3.91 5.80 5.81 5.71 7.73 C 4.58 7.79 3.45 7.80 2.32 7.76 C 2.24 5.84 2.32 3.92 2.38 1.99 L 1.03 2.03 C 0.98 4.44 1.01 6.86 1.01 9.27 C 1.68 9.55 2.35 9.83 3.01 10.12 L 3.04 11.68 C 3.03 14.55 3.09 17.17 2.55 20.00 L 2.09 20.00 L 2.41 19.28 C 1.70 16.56 2.09 13.96 1.99 11.19 L 0.00 10.66 L 0.00 0.92 C 1.07 1.41 1.84 1.11 2.31 0.00 Z" fill="#898989" />
<path d="M 3.05 1.19 C 4.54 0.71 5.16 0.96 4.92 1.92 C 3.58 2.50 2.96 2.26 3.05 1.19 Z" fill="#ffffff" />
<path d="M 1.03 2.03 L 2.38 1.99 C 2.32 3.92 2.24 5.84 2.32 7.76 C 3.45 7.80 4.58 7.79 5.71 7.73 C 5.80 5.81 5.68 3.91 5.61 2.00 L 6.84 2.00 C 7.19 4.46 7.22 6.76 6.88 9.23 C 4.92 9.09 2.97 9.17 1.01 9.27 C 1.01 6.86 0.98 4.44 1.03 2.03 Z" fill="#ffffff" />
<path d="M 2.93 2.99 L 3.94 2.48 L 5.04 2.90 C 4.92 4.11 6.01 7.44 4.05 7.35 C 2.00 7.58 3.10 4.21 2.93 2.99 Z" fill="#ffffff" />
<path d="M 7.77 4.01 C 11.51 4.00 15.24 3.97 18.97 4.03 C 19.02 8.00 19.01 12.00 18.97 15.97 C 16.98 16.04 14.99 15.96 13.00 16.01 L 13.00 17.99 C 13.99 18.00 14.98 18.01 15.97 18.03 L 15.99 18.99 C 12.67 19.00 9.35 19.00 6.03 18.99 L 6.03 18.02 C 7.02 18.01 8.01 18.00 9.00 17.99 L 9.00 16.00 C 7.90 15.99 6.80 15.99 5.70 15.99 L 5.89 14.98 C 9.91 14.99 13.94 15.06 17.96 14.95 C 18.04 12.54 18.03 10.11 17.96 7.69 C 17.92 6.89 17.84 6.08 17.72 5.28 C 14.44 5.06 11.14 5.21 7.85 5.16 L 7.77 4.01 Z" fill="#ffffff" />
<path d="M 7.85 5.16 C 11.14 5.21 14.44 5.06 17.72 5.28 C 17.84 6.08 17.92 6.89 17.96 7.69 C 14.73 8.50 11.62 9.81 8.38 10.52 L 8.02 10.24 C 7.98 8.54 7.96 6.85 7.85 5.16 Z" fill="#e1e1e1" />
<path d="M 17.96 7.69 C 18.03 10.11 18.04 12.54 17.96 14.95 C 13.94 15.06 9.91 14.99 5.89 14.98 C 6.03 13.61 6.06 12.24 6.00 10.85 L 4.91 11.43 L 3.04 11.68 L 3.01 10.12 C 2.35 9.83 1.68 9.55 1.01 9.27 C 2.97 9.17 4.92 9.09 6.88 9.23 L 8.02 10.24 L 8.38 10.52 C 11.62 9.81 14.73 8.50 17.96 7.69 Z" fill="#b2b2b2" />
<path d="M 0.00 10.66 L 1.99 11.19 C 2.09 13.96 1.70 16.56 2.41 19.28 L 2.09 20.00 L 0.00 20.00 L 0.00 10.66 Z" fill="#ffffff" />
</svg>