<?xml version="1.0" encoding="UTF-8" standalone="no"?>
<!DOCTYPE svg PUBLIC "-//W3C//DTD SVG 1.1//EN" "http://www.w3.org/Graphics/SVG/1.1/DTD/svg11.dtd">
<svg xmlns="http://www.w3.org/2000/svg" version="1.1" viewBox="0 0 128 124" width="128.0pt" height="124.0pt" xmlns:xlink="http://www.w3.org/1999/xlink">
<defs>
<path d="M 0.00 0.00 L 80.28 0.00 C 80.60 2.74 80.92 5.46 81.63 8.13 C 74.86 11.30 68.41 15.73 63.48 21.40 C 57.57 22.99 52.11 23.74 47.41 28.10 L 47.27 28.36 L 47.10 28.51 C 46.28 29.41 45.54 30.38 44.75 31.30 C 42.97 33.16 40.96 34.43 39.43 36.53 C 36.37 37.13 33.32 37.28 30.21 37.37 C 30.37 40.63 32.19 43.83 33.54 46.76 C 34.15 48.48 36.00 48.39 37.48 49.02 C 37.86 53.61 37.00 57.76 38.97 62.15 C 41.25 68.94 46.39 71.91 50.87 77.09 C 49.75 77.83 48.63 78.57 47.50 79.29 C 45.49 80.50 43.56 81.81 41.58 83.08 C 40.23 83.18 38.87 83.27 37.52 83.37 C 38.56 82.32 39.59 81.28 40.62 80.23 L 40.05 79.98 L 39.78 79.87 C 38.59 80.25 37.42 80.72 36.25 81.15 C 36.30 79.25 36.50 78.02 35.27 76.47 C 33.04 78.16 31.97 78.93 28.99 78.55 C 24.38 78.18 22.29 78.78 18.46 81.18 C 17.85 81.37 17.23 81.56 16.61 81.74 C 16.14 82.29 15.67 82.85 15.20 83.40 C 10.10 83.71 5.10 83.73 0.00 83.46 L 0.00 0.00 Z" id="p0" />
<path d="M 80.28 0.00 L 128.00 0.00 L 128.00 124.00 L 98.94 124.00 C 99.80 121.65 100.88 122.33 102.81 121.93 C 101.83 121.94 100.85 121.95 99.88 121.95 C 97.27 117.86 94.32 114.05 91.48 110.12 C 91.51 107.60 91.34 105.23 90.79 102.77 C 90.62 101.57 90.47 100.37 90.32 99.18 C 90.06 95.07 88.74 91.48 87.49 87.60 L 86.09 86.73 L 84.11 86.56 C 81.13 88.25 78.51 89.96 74.90 89.43 C 71.73 88.07 68.67 88.35 65.32 88.40 C 63.12 87.91 60.95 87.22 58.75 86.72 C 57.68 86.57 56.60 86.43 55.52 86.31 C 55.02 85.42 54.52 84.52 54.03 83.61 C 53.26 83.57 52.49 83.52 51.72 83.47 C 51.44 82.11 51.02 81.32 50.07 80.34 C 51.07 80.46 52.06 80.56 53.06 80.65 C 55.06 86.07 61.90 87.39 66.99 87.59 C 71.79 87.52 77.27 89.64 81.58 87.38 C 84.64 86.26 85.43 83.71 87.54 81.50 C 91.35 77.41 95.64 71.77 95.89 65.98 C 95.46 63.11 93.94 60.31 93.16 57.50 L 91.49 55.86 C 90.75 57.49 89.95 59.10 89.29 60.76 C 87.64 60.36 85.98 60.28 84.29 60.27 C 84.39 61.64 84.58 62.99 84.86 64.32 L 85.67 66.36 C 86.49 66.67 87.32 66.97 88.14 67.26 C 87.06 67.26 85.99 67.27 84.91 67.28 C 84.62 65.68 84.61 64.26 83.34 63.04 C 83.50 61.53 83.81 60.46 84.53 59.15 C 84.75 56.54 84.83 54.05 83.86 51.57 L 83.58 50.77 C 86.83 52.61 89.92 54.64 93.04 56.68 C 94.55 55.98 96.06 55.27 97.57 54.55 C 97.56 53.84 97.54 53.12 97.53 52.41 C 96.53 51.49 95.38 50.63 94.59 49.53 C 94.39 45.90 94.55 42.51 93.03 39.09 L 92.12 36.33 L 94.28 36.65 C 96.62 37.95 98.80 38.52 101.47 38.82 C 103.45 35.11 101.59 32.33 100.43 28.78 C 98.56 23.86 97.72 18.81 94.40 14.67 C 90.06 14.16 89.66 10.67 87.58 7.57 C 85.57 7.60 83.59 7.64 81.63 8.13 C 80.92 5.46 80.60 2.74 80.28 0.00 Z" id="p1" />
<path d="M 87.58 7.57 C 89.66 10.67 90.06 14.16 94.40 14.67 C 97.72 18.81 98.56 23.86 100.43 28.78 C 101.59 32.33 103.45 35.11 101.47 38.82 C 98.80 38.52 96.62 37.95 94.28 36.65 C 92.63 34.35 90.75 32.23 89.17 29.90 C 87.56 27.04 86.95 22.99 84.88 20.21 C 83.16 18.51 80.79 17.37 78.70 16.18 C 78.28 17.06 77.90 17.96 77.54 18.87 C 81.26 21.01 83.70 23.57 85.41 27.53 C 87.18 31.98 90.32 35.24 93.03 39.09 C 94.55 42.51 94.39 45.90 94.59 49.53 C 95.38 50.63 96.53 51.49 97.53 52.41 C 97.54 53.12 97.56 53.84 97.57 54.55 C 96.06 55.27 94.55 55.98 93.04 56.68 C 89.92 54.64 86.83 52.61 83.58 50.77 L 83.02 50.18 C 78.97 47.46 74.61 45.21 70.51 42.57 C 65.61 39.46 60.37 37.26 54.77 35.78 C 51.83 35.35 48.50 36.23 45.55 36.59 L 45.60 37.49 C 43.99 37.69 42.65 37.37 41.41 38.60 L 39.43 36.53 C 40.96 34.43 42.97 33.16 44.75 31.30 L 46.16 29.86 C 46.81 30.75 47.47 31.63 48.12 32.52 C 48.30 32.04 48.48 31.56 48.66 31.08 C 54.50 31.56 59.74 30.75 65.32 33.14 C 68.67 34.80 72.56 35.85 75.45 38.19 C 78.86 40.65 82.04 43.38 85.55 45.70 C 86.93 46.66 87.83 48.39 89.33 49.13 C 91.48 49.88 92.22 51.67 93.55 53.32 C 91.72 49.50 87.78 46.85 84.47 44.28 C 81.20 42.11 78.12 39.62 74.94 37.33 C 71.99 35.07 68.22 34.33 64.89 32.56 C 59.46 30.09 54.29 30.66 48.52 30.91 C 48.09 30.07 47.68 29.22 47.27 28.36 L 47.41 28.10 C 52.11 23.74 57.57 22.99 63.48 21.40 C 68.41 15.73 74.86 11.30 81.63 8.13 C 83.59 7.64 85.57 7.60 87.58 7.57 Z" id="p2" />
<path d="M 78.70 16.18 C 80.79 17.37 83.16 18.51 84.88 20.21 C 86.95 22.99 87.56 27.04 89.17 29.90 C 90.75 32.23 92.63 34.35 94.28 36.65 L 92.12 36.33 L 93.03 39.09 C 90.32 35.24 87.18 31.98 85.41 27.53 C 83.70 23.57 81.26 21.01 77.54 18.87 C 77.90 17.96 78.28 17.06 78.70 16.18 Z" id="p3" />
<path d="M 47.10 28.51 L 47.27 28.36 C 47.68 29.22 48.09 30.07 48.52 30.91 C 54.29 30.66 59.46 30.09 64.89 32.56 C 68.22 34.33 71.99 35.07 74.94 37.33 C 78.12 39.62 81.20 42.11 84.47 44.28 C 87.78 46.85 91.72 49.50 93.55 53.32 C 92.22 51.67 91.48 49.88 89.33 49.13 C 87.83 48.39 86.93 46.66 85.55 45.70 C 82.04 43.38 78.86 40.65 75.45 38.19 C 72.56 35.85 68.67 34.80 65.32 33.14 C 59.74 30.75 54.50 31.56 48.66 31.08 C 48.48 31.56 48.30 32.04 48.12 32.52 C 47.47 31.63 46.81 30.75 46.16 29.86 L 44.75 31.30 C 45.54 30.38 46.28 29.41 47.10 28.51 Z" id="p4" />
<path d="M 54.77 35.78 C 60.37 37.26 65.61 39.46 70.51 42.57 C 74.61 45.21 78.97 47.46 83.02 50.18 L 83.58 50.77 L 83.86 51.57 C 80.87 48.88 76.97 47.15 73.55 44.93 C 69.87 42.54 65.97 40.33 61.91 38.67 C 58.65 37.82 56.34 36.16 53.03 36.24 C 50.69 36.14 48.46 36.59 46.20 37.11 L 46.31 38.15 C 44.96 38.19 43.61 38.23 42.27 38.36 C 39.97 39.80 40.23 41.74 39.84 44.04 C 39.79 42.81 39.74 41.58 39.68 40.35 C 40.25 39.76 40.83 39.17 41.41 38.60 C 42.65 37.37 43.99 37.69 45.60 37.49 L 45.55 36.59 C 48.50 36.23 51.83 35.35 54.77 35.78 Z" id="p5" />
<path d="M 30.21 37.37 C 33.32 37.28 36.37 37.13 39.43 36.53 L 41.41 38.60 C 40.83 39.17 40.25 39.76 39.68 40.35 C 39.74 41.58 39.79 42.81 39.84 44.04 C 40.23 41.74 39.97 39.80 42.27 38.36 C 43.61 38.23 44.96 38.19 46.31 38.15 L 46.20 37.11 C 48.46 36.59 50.69 36.14 53.03 36.24 C 56.34 36.16 58.65 37.82 61.91 38.67 C 65.97 40.33 69.87 42.54 73.55 44.93 C 76.97 47.15 80.87 48.88 83.86 51.57 C 84.83 54.05 84.75 56.54 84.53 59.15 C 83.81 60.46 83.50 61.53 83.34 63.04 C 84.61 64.26 84.62 65.68 84.91 67.28 C 85.99 67.27 87.06 67.26 88.14 67.26 C 87.32 66.97 86.49 66.67 85.67 66.36 L 84.86 64.32 C 86.34 64.01 87.82 63.69 89.29 63.36 C 89.29 62.49 89.29 61.62 89.29 60.76 C 89.95 59.10 90.75 57.49 91.49 55.86 L 93.16 57.50 C 93.94 60.31 95.46 63.11 95.89 65.98 C 95.64 71.77 91.35 77.41 87.54 81.50 C 85.43 83.71 84.64 86.26 81.58 87.38 C 77.27 89.64 71.79 87.52 66.99 87.59 C 61.90 87.39 55.06 86.07 53.06 80.65 C 52.06 80.56 51.07 80.46 50.07 80.34 C 49.22 79.98 48.36 79.64 47.50 79.29 C 48.63 78.57 49.75 77.83 50.87 77.09 C 46.39 71.91 41.25 68.94 38.97 62.15 C 37.00 57.76 37.86 53.61 37.48 49.02 C 36.00 48.39 34.15 48.48 33.54 46.76 C 32.19 43.83 30.37 40.63 30.21 37.37 Z M 68.89 54.59 C 68.86 55.71 68.82 56.84 68.76 57.96 C 67.73 61.74 66.33 65.02 68.11 68.86 C 69.76 71.12 72.54 72.60 74.61 74.47 C 74.92 77.34 74.84 79.39 73.83 82.10 C 73.33 82.94 74.51 83.79 74.88 84.54 C 77.55 82.28 80.81 82.99 82.47 80.07 C 84.63 76.90 86.93 73.83 89.29 70.81 C 89.13 70.27 88.97 69.73 88.81 69.19 L 88.57 71.00 C 85.90 70.51 81.91 70.39 79.96 68.24 C 79.23 67.15 78.56 66.04 77.92 64.90 C 79.23 64.22 80.56 63.60 81.92 63.04 C 81.72 62.65 81.51 62.26 81.30 61.87 C 80.00 62.60 78.70 63.34 77.41 64.09 C 73.33 62.95 72.84 59.32 69.52 57.40 C 69.39 56.42 69.26 55.44 69.13 54.46 C 66.40 51.70 63.66 48.94 60.96 46.14 L 60.35 45.56 C 62.77 48.87 66.00 51.69 68.89 54.59 Z M 45.05 68.17 C 46.99 67.16 47.37 65.65 48.09 63.73 C 45.72 65.05 44.99 65.18 45.05 68.17 Z" id="p6" />
<path d="M 60.35 45.56 L 60.96 46.14 C 63.66 48.94 66.40 51.70 69.13 54.46 C 69.26 55.44 69.39 56.42 69.52 57.40 C 72.84 59.32 73.33 62.95 77.41 64.09 C 78.70 63.34 80.00 62.60 81.30 61.87 C 81.51 62.26 81.72 62.65 81.92 63.04 C 80.56 63.60 79.23 64.22 77.92 64.90 C 78.56 66.04 79.23 67.15 79.96 68.24 C 81.91 70.39 85.90 70.51 88.57 71.00 L 88.81 69.19 C 88.97 69.73 89.13 70.27 89.29 70.81 C 86.93 73.83 84.63 76.90 82.47 80.07 C 80.81 82.99 77.55 82.28 74.88 84.54 C 74.51 83.79 73.33 82.94 73.83 82.10 C 74.84 79.39 74.92 77.34 74.61 74.47 L 75.61 75.39 L 75.86 75.62 L 76.80 76.39 C 78.71 76.61 80.61 76.76 82.52 76.95 C 84.78 75.32 86.55 73.54 88.27 71.34 C 85.88 70.76 83.15 70.40 80.92 69.32 C 78.90 68.21 77.12 67.79 75.30 69.63 L 75.44 68.20 L 73.52 68.81 C 73.53 66.73 73.54 64.65 73.46 62.57 L 73.14 62.00 L 72.87 61.61 C 71.66 59.90 70.92 58.49 68.76 57.96 C 68.82 56.84 68.86 55.71 68.89 54.59 C 66.00 51.69 62.77 48.87 60.35 45.56 Z" id="p7" />
<path d="M 68.76 57.96 C 70.92 58.49 71.66 59.90 72.87 61.61 L 69.40 61.35 C 69.49 62.95 69.57 64.55 69.64 66.15 C 71.33 68.03 73.16 69.75 75.05 71.42 C 75.24 72.74 75.43 74.07 75.61 75.39 L 74.61 74.47 C 72.54 72.60 69.76 71.12 68.11 68.86 C 66.33 65.02 67.73 61.74 68.76 57.96 Z" id="p8" />
<path d="M 89.29 60.76 C 89.29 61.62 89.29 62.49 89.29 63.36 C 87.82 63.69 86.34 64.01 84.86 64.32 C 84.58 62.99 84.39 61.64 84.29 60.27 C 85.98 60.28 87.64 60.36 89.29 60.76 Z" id="p9" />
<path d="M 69.40 61.35 L 72.87 61.61 L 73.14 62.00 L 73.46 62.57 C 73.54 64.65 73.53 66.73 73.52 68.81 L 75.44 68.20 L 75.30 69.63 C 76.58 70.33 77.90 70.95 79.23 71.56 C 77.67 71.10 76.51 70.18 75.05 71.42 C 73.16 69.75 71.33 68.03 69.64 66.15 C 69.57 64.55 69.49 62.95 69.40 61.35 Z" id="p10" />
<path d="M 48.09 63.73 C 47.37 65.65 46.99 67.16 45.05 68.17 C 44.99 65.18 45.72 65.05 48.09 63.73 Z" id="p11" />
<path d="M 75.30 69.63 C 77.12 67.79 78.90 68.21 80.92 69.32 C 83.15 70.40 85.88 70.76 88.27 71.34 C 86.55 73.54 84.78 75.32 82.52 76.95 C 80.61 76.76 78.71 76.61 76.80 76.39 L 75.86 75.62 C 78.21 75.06 80.31 74.61 82.20 73.01 C 81.22 72.50 80.23 72.02 79.23 71.56 C 77.90 70.95 76.58 70.33 75.30 69.63 Z" id="p12" />
<path d="M 79.23 71.56 C 80.23 72.02 81.22 72.50 82.20 73.01 C 80.31 74.61 78.21 75.06 75.86 75.62 L 75.61 75.39 C 75.43 74.07 75.24 72.74 75.05 71.42 C 76.51 70.18 77.67 71.10 79.23 71.56 Z" id="p13" />
<path d="M 35.27 76.47 C 36.50 78.02 36.30 79.25 36.25 81.15 C 35.21 82.95 34.56 84.81 34.07 86.83 L 37.08 86.08 L 36.28 86.91 C 34.93 88.20 33.53 89.42 32.14 90.67 C 32.41 87.18 32.17 83.73 31.77 80.26 C 26.93 78.51 23.15 79.93 18.46 81.18 C 22.29 78.78 24.38 78.18 28.99 78.55 C 31.97 78.93 33.04 78.16 35.27 76.47 Z" id="p14" />
<path d="M 31.77 80.26 C 32.17 83.73 32.41 87.18 32.14 90.67 C 33.53 89.42 34.93 88.20 36.28 86.91 C 35.49 88.28 34.71 89.66 33.92 91.03 C 36.07 92.27 37.98 93.65 39.85 95.26 C 37.37 95.36 34.89 95.41 32.41 95.58 C 29.12 96.13 25.66 95.72 23.38 98.51 C 21.75 100.04 21.39 101.95 20.92 104.03 C 21.85 104.31 22.77 104.58 23.69 104.86 C 21.91 105.99 20.76 105.67 18.70 105.46 C 18.34 111.77 16.19 117.65 16.28 124.00 L 0.00 124.00 L 0.00 83.46 C 5.10 83.73 10.10 83.71 15.20 83.40 C 15.67 82.85 16.14 82.29 16.61 81.74 C 17.23 81.56 17.85 81.37 18.46 81.18 C 23.15 79.93 26.93 78.51 31.77 80.26 Z" id="p15" />
<path d="M 39.78 79.87 L 40.05 79.98 L 40.62 80.23 C 39.59 81.28 38.56 82.32 37.52 83.37 C 38.87 83.27 40.23 83.18 41.58 83.08 C 40.06 84.04 38.55 85.02 37.08 86.08 L 34.07 86.83 C 34.56 84.81 35.21 82.95 36.25 81.15 C 37.42 80.72 38.59 80.25 39.78 79.87 Z" id="p16" />
<path d="M 47.50 79.29 C 48.36 79.64 49.22 79.98 50.07 80.34 C 51.02 81.32 51.44 82.11 51.72 83.47 C 52.49 83.52 53.26 83.57 54.03 83.61 C 54.52 84.52 55.02 85.42 55.52 86.31 C 55.57 88.01 55.60 89.70 55.62 91.40 C 52.65 89.30 52.32 86.25 51.03 83.08 C 48.51 85.13 46.34 87.47 43.54 89.16 C 43.24 92.74 44.47 95.57 45.97 98.71 C 45.21 98.46 44.45 98.22 43.68 97.99 C 42.36 97.14 41.08 96.24 39.85 95.26 C 37.98 93.65 36.07 92.27 33.92 91.03 C 34.71 89.66 35.49 88.28 36.28 86.91 L 37.08 86.08 C 38.55 85.02 40.06 84.04 41.58 83.08 C 43.56 81.81 45.49 80.50 47.50 79.29 Z" id="p17" />
<path d="M 51.03 83.08 C 52.32 86.25 52.65 89.30 55.62 91.40 C 55.10 91.99 54.59 92.58 54.07 93.17 C 55.55 94.92 57.04 96.66 58.56 98.38 C 59.33 98.39 60.10 98.39 60.87 98.40 C 61.70 94.74 63.51 91.63 65.32 88.40 C 68.67 88.35 71.73 88.07 74.90 89.43 C 75.34 90.41 75.78 91.39 76.22 92.38 C 79.95 93.14 82.06 91.90 85.15 90.10 C 85.46 88.98 85.77 87.86 86.09 86.73 L 87.49 87.60 C 88.74 91.48 90.06 95.07 90.32 99.18 C 88.00 102.08 89.21 104.84 89.46 108.18 C 89.94 106.38 90.39 104.58 90.79 102.77 C 91.34 105.23 91.51 107.60 91.48 110.12 C 94.32 114.05 97.27 117.86 99.88 121.95 C 100.85 121.95 101.83 121.94 102.81 121.93 C 100.88 122.33 99.80 121.65 98.94 124.00 L 55.36 124.00 C 55.10 122.58 54.86 121.16 54.65 119.74 C 54.44 116.16 53.86 112.60 53.75 109.02 C 57.43 107.52 61.31 106.39 64.90 104.73 C 68.44 101.94 72.63 97.72 72.58 92.87 L 72.35 92.46 C 70.22 96.03 69.64 99.66 66.00 102.12 C 62.80 105.09 58.97 105.41 55.22 107.45 C 52.72 108.84 50.22 108.55 47.46 108.72 C 47.58 106.22 47.24 105.11 45.72 103.15 C 44.75 101.51 43.70 99.97 42.51 98.48 L 43.68 97.99 C 44.45 98.22 45.21 98.46 45.97 98.71 C 44.47 95.57 43.24 92.74 43.54 89.16 C 46.34 87.47 48.51 85.13 51.03 83.08 Z M 67.03 97.36 L 66.62 98.09 L 67.03 98.82 L 67.85 98.82 L 68.25 98.09 L 67.84 97.36 L 67.03 97.36 Z M 91.40 118.93 L 91.39 119.75 L 92.10 120.18 L 92.83 119.79 L 92.84 118.97 L 92.12 118.54 L 91.40 118.93 Z M 73.86 121.93 L 74.35 122.02 L 74.64 122.08 C 76.32 122.03 80.78 123.86 80.86 121.28 C 78.51 121.42 76.18 121.62 73.86 121.93 Z" id="p18" />
<path d="M 55.52 86.31 C 56.60 86.43 57.68 86.57 58.75 86.72 C 60.95 87.22 63.12 87.91 65.32 88.40 C 63.51 91.63 61.70 94.74 60.87 98.40 C 60.10 98.39 59.33 98.39 58.56 98.38 C 57.04 96.66 55.55 94.92 54.07 93.17 C 54.59 92.58 55.10 91.99 55.62 91.40 C 55.60 89.70 55.57 88.01 55.52 86.31 Z M 58.37 96.06 L 58.38 96.97 L 59.04 97.45 L 59.68 96.98 L 59.66 96.07 L 59.01 95.59 L 58.37 96.06 Z" id="p19" />
<path d="M 84.11 86.56 L 86.09 86.73 C 85.77 87.86 85.46 88.98 85.15 90.10 C 82.06 91.90 79.95 93.14 76.22 92.38 C 75.78 91.39 75.34 90.41 74.90 89.43 C 78.51 89.96 81.13 88.25 84.11 86.56 Z" id="p20" />
<path d="M 72.35 92.46 L 72.58 92.87 C 72.63 97.72 68.44 101.94 64.90 104.73 C 61.31 106.39 57.43 107.52 53.75 109.02 C 51.23 109.74 48.74 110.95 46.16 111.39 C 44.41 111.15 43.84 109.02 43.16 107.66 L 44.95 107.56 C 44.71 104.44 45.03 101.85 42.78 99.33 C 41.78 99.19 40.77 99.04 39.77 98.90 C 40.69 98.79 41.60 98.65 42.51 98.48 C 43.70 99.97 44.75 101.51 45.72 103.15 C 47.24 105.11 47.58 106.22 47.46 108.72 C 50.22 108.55 52.72 108.84 55.22 107.45 C 58.97 105.41 62.80 105.09 66.00 102.12 C 69.64 99.66 70.22 96.03 72.35 92.46 Z" id="p21" />
<path d="M 32.41 95.58 C 31.89 97.35 31.27 99.18 30.98 101.01 C 31.71 102.93 34.52 103.80 35.96 105.20 C 36.33 107.21 36.39 109.29 36.51 111.33 C 37.87 112.30 39.24 113.41 40.76 114.13 C 43.21 114.92 45.89 114.94 48.37 115.65 C 49.38 116.72 49.72 118.47 50.27 119.83 C 50.56 117.10 49.58 112.28 52.09 110.56 C 54.43 113.36 54.20 116.35 54.65 119.74 C 54.86 121.16 55.10 122.58 55.36 124.00 L 16.28 124.00 C 16.19 117.65 18.34 111.77 18.70 105.46 C 20.76 105.67 21.91 105.99 23.69 104.86 C 22.77 104.58 21.85 104.31 20.92 104.03 C 21.39 101.95 21.75 100.04 23.38 98.51 C 25.66 95.72 29.12 96.13 32.41 95.58 Z M 39.76 121.62 C 43.48 124.42 48.15 123.68 52.18 122.03 C 47.89 120.72 44.13 120.18 39.76 121.62 Z" id="p22" />
<path d="M 32.41 95.58 C 34.89 95.41 37.37 95.36 39.85 95.26 C 41.08 96.24 42.36 97.14 43.68 97.99 L 42.51 98.48 C 41.60 98.65 40.69 98.79 39.77 98.90 C 40.77 99.04 41.78 99.19 42.78 99.33 C 45.03 101.85 44.71 104.44 44.95 107.56 L 43.16 107.66 C 43.84 109.02 44.41 111.15 46.16 111.39 C 48.74 110.95 51.23 109.74 53.75 109.02 C 53.86 112.60 54.44 116.16 54.65 119.74 C 54.20 116.35 54.43 113.36 52.09 110.56 C 49.58 112.28 50.56 117.10 50.27 119.83 C 49.72 118.47 49.38 116.72 48.37 115.65 C 45.89 114.94 43.21 114.92 40.76 114.13 C 39.24 113.41 37.87 112.30 36.51 111.33 C 36.39 109.29 36.33 107.21 35.96 105.20 C 34.52 103.80 31.71 102.93 30.98 101.01 C 31.27 99.18 31.89 97.35 32.41 95.58 Z" id="p23" />
<path d="M 58.37 96.06 L 59.01 95.59 L 59.66 96.07 L 59.68 96.98 L 59.04 97.45 L 58.38 96.97 L 58.37 96.06 Z" id="p24" />
<path d="M 67.03 97.36 L 67.84 97.36 L 68.25 98.09 L 67.85 98.82 L 67.03 98.82 L 66.62 98.09 L 67.03 97.36 Z" id="p25" />
<path d="M 90.32 99.18 C 90.47 100.37 90.62 101.57 90.79 102.77 C 90.39 104.58 89.94 106.38 89.46 108.18 C 89.21 104.84 88.00 102.08 90.32 99.18 Z" id="p26" />
<path d="M 91.40 118.93 L 92.12 118.54 L 92.84 118.97 L 92.83 119.79 L 92.10 120.18 L 91.39 119.75 L 91.40 118.93 Z" id="p27" />
<path d="M 39.76 121.62 C 44.13 120.18 47.89 120.72 52.18 122.03 C 48.15 123.68 43.48 124.42 39.76 121.62 Z" id="p28" />
<path d="M 73.86 121.93 C 76.18 121.62 78.51 121.42 80.86 121.28 C 80.78 123.86 76.32 122.03 74.64 122.08 L 74.35 122.02 L 73.86 121.93 Z" id="p29" />
</defs>
<g stroke-width="10pt">
<use stroke="#370910" xlink:href="#p0" />
<use stroke="#282c54" xlink:href="#p1" />
<use stroke="#e4e2ec" xlink:href="#p2" />
<use stroke="#c6b9ba" xlink:href="#p3" />
<use stroke="#370910" xlink:href="#p4" />
<use stroke="#370910" xlink:href="#p5" />
<use stroke="#f39175" xlink:href="#p6" />
<use stroke="#370910" xlink:href="#p7" />
<use stroke="#ca7b67" xlink:href="#p8" />
<use stroke="#e4e2ec" xlink:href="#p9" />
<use stroke="#e4e2ec" xlink:href="#p10" />
<use stroke="#ca7b67" xlink:href="#p11" />
<use stroke="#ca7b67" xlink:href="#p12" />
<use stroke="#c6b9ba" xlink:href="#p13" />
<use stroke="#c6b9ba" xlink:href="#p14" />
<use stroke="#c6b9ba" xlink:href="#p15" />
<use stroke="#282c54" xlink:href="#p16" />
<use stroke="#e4e2ec" xlink:href="#p17" />
<use stroke="#c6b9ba" xlink:href="#p18" />
<use stroke="#ca7b67" xlink:href="#p19" />
<use stroke="#e4e2ec" xlink:href="#p20" />
<use stroke="#370910" xlink:href="#p21" />
<use stroke="#ca7b67" xlink:href="#p22" />
<use stroke="#f39175" xlink:href="#p23" />
<use stroke="#282c54" xlink:href="#p24" />
<use stroke="#e4e2ec" xlink:href="#p25" />
<use stroke="#e4e2ec" xlink:href="#p26" />
<use stroke="#e4e2ec" xlink:href="#p27" />
<use stroke="#c6b9ba" xlink:href="#p28" />
<use stroke="#370910" xlink:href="#p29" />
</g>
<g>
<use fill="#370910" xlink:href="#p0" />
<use fill="#282c54" xlink:href="#p1" />
<use fill="#e4e2ec" xlink:href="#p2" />
<use fill="#c6b9ba" xlink:href="#p3" />
<use fill="#370910" xlink:href="#p4" />
<use fill="#370910" xlink:href="#p5" />
<use fill="#f39175" xlink:href="#p6" />
<use fill="#370910" xlink:href="#p7" />
<use fill="#ca7b67" xlink:href="#p8" />
<use fill="#e4e2ec" xlink:href="#p9" />
<use fill="#e4e2ec" xlink:href="#p10" />
<use fill="#ca7b67" xlink:href="#p11" />
<use fill="#ca7b67" xlink:href="#p12" />
<use fill="#c6b9ba" xlink:href="#p13" />
<use fill="#c6b9ba" xlink:href="#p14" />
<use fill="#c6b9ba" xlink:href="#p15" />
<use fill="#282c54" xlink:href="#p16" />
<use fill="#e4e2ec" xlink:href="#p17" />
<use fill="#c6b9ba" xlink:href="#p18" />
<use fill="#ca7b67" xlink:href="#p19" />
<use fill="#e4e2ec" xlink:href="#p20" />
<use fill="#370910" xlink:href="#p21" />
<use fill="#ca7b67" xlink:href="#p22" />
<use fill="#f39175" xlink:href="#p23" />
<use fill="#282c54" xlink:href="#p24" />
<use fill="#e4e2ec" xlink:href="#p25" />
<use fill="#e4e2ec" xlink:href="#p26" />
<use fill="#e4e2ec" xlink:href="#p27" />
<use fill="#c6b9ba" xlink:href="#p28" />
<use fill="#370910" xlink:href="#p29" />
</g>
</svg>